<?xml version="1.0"?>
<svg xmlns="http://www.w3.org/2000/svg" viewBox="0 0 64 64" width="512px" height="512px" class=""><g><g id="_24_Hour" data-name="24 Hour"><path d="M43.794,20.208A20.99,20.99,0,1,0,20.208,43.794,20.989,20.989,0,1,0,43.794,20.208Zm-2.042-.17C41.5,20.029,41.254,20,41,20a20.868,20.868,0,0,0-8.033,1.6,39.4,39.4,0,0,0-1.378-9.464,20.981,20.981,0,0,0,4.6-2.837A18.849,18.849,0,0,1,41.752,20.038ZM20.023,40.55a14.468,14.468,0,0,1-3.165-5.507,18.8,18.8,0,0,1,4.331-.945A20.869,20.869,0,0,0,20.023,40.55Zm-1.96.793a18.837,18.837,0,0,1-6.729-3.311,18.958,18.958,0,0,1,3.689-2.256A17.924,17.924,0,0,0,18.063,41.343Zm3.97-9.3a20.772,20.772,0,0,0-5.76,1.084A38.632,38.632,0,0,1,15.019,24h13.7A21.094,21.094,0,0,0,22.033,32.047ZM23,4c2.242,0,4.57,2.583,6.134,6.962A18.94,18.94,0,0,1,23,12a18.94,18.94,0,0,1-6.134-1.038C18.43,6.583,20.758,4,23,4Zm-7.977,6.227A18.932,18.932,0,0,1,11.378,8a18.943,18.943,0,0,1,6.678-3.327A17.979,17.979,0,0,0,15.023,10.227Zm12.9-5.576A18.86,18.86,0,0,1,34.662,7.97a19.012,19.012,0,0,1-3.685,2.257A17.941,17.941,0,0,0,27.924,4.651ZM23,14a20.926,20.926,0,0,0,6.731-1.131A37.8,37.8,0,0,1,30.977,22H15.023a37.8,37.8,0,0,1,1.246-9.131A20.926,20.926,0,0,0,23,14ZM9.838,9.329a21.032,21.032,0,0,0,4.573,2.811A39.678,39.678,0,0,0,13.023,22H4.051A18.924,18.924,0,0,1,9.838,9.329ZM4.047,24H13.02a39.821,39.821,0,0,0,1.394,9.861A20.99,20.99,0,0,0,9.805,36.7,18.906,18.906,0,0,1,4.047,24ZM41,60A19,19,0,1,1,60,41,19.021,19.021,0,0,1,41,60Z" data-original="#000000" class="active-path" data-old_color="#000000" fill="#898181"/><path d="M41,24A17,17,0,1,0,58,41,17.019,17.019,0,0,0,41,24Zm0,32A15,15,0,1,1,56,41,15.017,15.017,0,0,1,41,56Z" data-original="#000000" class="active-path" data-old_color="#000000" fill="#898181"/><path d="M40,46H34V42h5a1,1,0,0,0,1-1V35a1,1,0,0,0-1-1H32v2h6v4H33a1,1,0,0,0-1,1v6a1,1,0,0,0,1,1h7Z" data-original="#000000" class="active-path" data-old_color="#000000" fill="#898181"/><path d="M48,40H44V34H42v7a1,1,0,0,0,1,1h5v6h2V34H48Z" data-original="#000000" class="active-path" data-old_color="#000000" fill="#898181"/><rect x="40" y="28" width="2" height="2" data-original="#000000" class="active-path" data-old_color="#000000" fill="#898181"/><rect x="28" y="40" width="2" height="2" data-original="#000000" class="active-path" data-old_color="#000000" fill="#898181"/><rect x="40" y="52" width="2" height="2" data-original="#000000" class="active-path" data-old_color="#000000" fill="#898181"/><rect x="52" y="40" width="2" height="2" data-original="#000000" class="active-path" data-old_color="#000000" fill="#898181"/><path d="M15.465,52.05l-1.414,1.414L16.586,56H13a5.006,5.006,0,0,1-5-5V45H6v6a7.008,7.008,0,0,0,7,7h3.586l-2.535,2.536,1.414,1.414,4.242-4.243a1,1,0,0,0,0-1.414Z" data-original="#000000" class="active-path" data-old_color="#000000" fill="#898181"/><path d="M48.535,11.95l1.414-1.414L47.414,8H51a5.006,5.006,0,0,1,5,5v6h2V13a7.008,7.008,0,0,0-7-7H47.414l2.535-2.536L48.535,2.05,44.293,6.293a1,1,0,0,0,0,1.414Z" data-original="#000000" class="active-path" data-old_color="#000000" fill="#898181"/></g></g> </svg>
