<?xml version="1.0"?>
<svg xmlns="http://www.w3.org/2000/svg" xmlns:xlink="http://www.w3.org/1999/xlink" version="1.1" id="Layer_1" x="0px" y="0px" viewBox="0 0 485.319 485.319" style="enable-background:new 0 0 485.319 485.319;" xml:space="preserve" width="512px" height="512px"><g><g>
	<g>
		<path d="M430.647,40.519c0-3.3-2.7-5.9-6-5.9c0,0,0,0-0.1,0c-3.3,0-6,2.8-5.9,6.1l0.4,35l-6.8-6.6    c-46.4-45.3-107.6-69.9-172.4-69.1c-64.8,0.7-125.4,26.7-170.7,73c-32.5,33.2-54.6,74.6-64,119.9c-9.2,44-6,89.6,9.1,131.9    c0.9,2.5,3.2,4,5.6,4c0.7,0,1.4-0.1,2-0.4c3.1-1.1,4.7-4.6,3.6-7.7c-30-83.9-10-175.6,52.3-239.3c43-44.1,100.7-68.7,162.3-69.4    c61.6-0.8,119.8,22.6,163.8,65.7l6.8,6.6l-35,0.4c-3.3,0-6,2.8-5.9,6.1c0,3.3,2.7,5.9,6,5.9c0,0,0,0,0.1,0l49.5-0.6    c3.3,0,6-2.8,5.9-6.1L430.647,40.519z" data-original="#000000" class="active-path" data-old_color="#000000" fill="#898181"/>
	</g>
</g><g>
	<g>
		<path d="M471.047,160.519c-1.1-3.1-4.6-4.7-7.7-3.6c-3.1,1.1-4.7,4.6-3.6,7.7c30.1,83.9,10.1,175.6-52.1,239.3    c-43.1,44.1-100.7,68.7-162.3,69.4c-61.6,0.7-119.8-22.6-163.8-65.7l-6.8-6.6l35-0.4c3.3,0,6-2.8,5.9-6.1c0-3.3-2.7-5.9-6.1-5.9    l-49.5,0.6c-3.3,0-6,2.8-5.9,6.1l0.6,49.5c0,3.3,2.7,5.9,6,5.9c0,0,0,0,0.1,0c3.3,0,6-2.8,5.9-6.1l-0.4-35l6.8,6.6    c45.7,44.6,105.8,69.1,169.5,69.1c1,0,1.9,0,2.9,0c64.8-0.7,125.4-26.7,170.7-73c32.4-33.2,54.6-74.6,64-119.9    C489.347,248.319,486.147,202.719,471.047,160.519z" data-original="#000000" class="active-path" data-old_color="#000000" fill="#898181"/>
	</g>
</g></g> </svg>
